<?xml version="1.0" encoding="UTF-8"?>
<!DOCTYPE svg PUBLIC "-//W3C//DTD SVG 1.1//EN" "http://www.w3.org/Graphics/SVG/1.1/DTD/svg11.dtd">
<!-- Creator: CorelDRAW -->
<svg xmlns="http://www.w3.org/2000/svg" xml:space="preserve" width="63.0139mm" height="38.2233mm" version="1.1" style="shape-rendering:geometricPrecision; text-rendering:geometricPrecision; image-rendering:optimizeQuality; fill-rule:evenodd; clip-rule:evenodd"
viewBox="0 0 202.16 122.63"
 xmlns:xlink="http://www.w3.org/1999/xlink"
 xmlns:xodm="http://www.corel.com/coreldraw/odm/2003">
 <defs>
  <style type="text/css">
   <![CDATA[
    .fil0 {fill:#1D4ED8;fill-rule:nonzero}
   ]]>
  </style>
 </defs>
 <g id="Camada_x0020_1">
  <metadata id="CorelCorpID_0Corel-Layer"/>
  <path class="fil0" d="M-0 122.63l0 -122.63 53.26 0c7.71,0 14.42,1.34 20.15,4.03 5.72,2.69 10.16,6.48 13.31,11.39 3.15,4.91 4.73,10.69 4.73,17.34l0 2.1c0,7.36 -1.75,13.31 -5.26,17.87 -3.5,4.56 -7.82,7.88 -12.96,9.99l0 3.15c4.67,0.23 8.29,1.84 10.86,4.82 2.57,2.98 3.85,6.92 3.85,11.82l0 40.12 -23.12 0 0 -36.79c0,-2.8 -0.73,-5.08 -2.19,-6.83 -1.46,-1.75 -3.88,-2.63 -7.27,-2.63l-32.23 0 0 46.25 -23.12 0zm23.12 -67.27l27.68 0c5.49,0 9.78,-1.49 12.88,-4.47 3.09,-2.98 4.64,-6.92 4.64,-11.83l0 -1.75c0,-4.91 -1.52,-8.85 -4.55,-11.82 -3.04,-2.98 -7.36,-4.47 -12.96,-4.47l-27.68 0 0 34.34zm87.59 67.27l0 -122.63 53.26 0c7.71,0 14.42,1.34 20.15,4.03 5.72,2.69 10.16,6.48 13.31,11.39 3.15,4.91 4.73,10.69 4.73,17.34l0 2.1c0,7.36 -1.75,13.31 -5.26,17.87 -3.5,4.56 -7.82,7.88 -12.96,9.99l0 3.15c4.67,0.23 8.29,1.84 10.86,4.82 2.57,2.98 3.85,6.92 3.85,11.82l0 40.12 -23.12 0 0 -36.79c0,-2.8 -0.73,-5.08 -2.19,-6.83 -1.46,-1.75 -3.88,-2.63 -7.27,-2.63l-32.23 0 0 46.25 -23.12 0zm23.12 -67.27l27.68 0c5.49,0 9.78,-1.49 12.88,-4.47 3.09,-2.98 4.64,-6.92 4.64,-11.83l0 -1.75c0,-4.91 -1.52,-8.85 -4.56,-11.82 -3.04,-2.98 -7.36,-4.47 -12.96,-4.47l-27.68 0 0 34.34z"/>
 </g>
</svg>
