<?xml version="1.0" encoding="UTF-8"?>
<!DOCTYPE svg PUBLIC "-//W3C//DTD SVG 1.1//EN" "http://www.w3.org/Graphics/SVG/1.1/DTD/svg11.dtd">
<!-- Creator: CorelDRAW -->
<svg xmlns="http://www.w3.org/2000/svg" xml:space="preserve" width="99.4251mm" height="79.8268mm" version="1.1" style="shape-rendering:geometricPrecision; text-rendering:geometricPrecision; image-rendering:optimizeQuality; fill-rule:evenodd; clip-rule:evenodd"
viewBox="0 0 1351.4 1085.02"
 xmlns:xlink="http://www.w3.org/1999/xlink"
 xmlns:xodm="http://www.corel.com/coreldraw/odm/2003">
 <defs>
  <style type="text/css">
   <![CDATA[
    .fil0 {fill:black;fill-rule:nonzero}
   ]]>
  </style>
 </defs>
 <g id="Camada_x0020_1">
  <metadata id="CorelCorpID_0Corel-Layer"/>
  <path class="fil0" d="M903.1 1085.02l0 -116.95 133.19 0c19.49,0 29.24,-10.83 29.24,-32.49l0 -296.7c0,-24.54 7.76,-45.12 23.28,-61.72 15.52,-16.6 35.92,-24.91 61.18,-24.91l17.32 0 0 -19.49 -17.32 0c-25.27,0 -45.66,-8.3 -61.18,-24.9 -15.52,-16.6 -23.28,-37.18 -23.28,-61.72l0 -296.7c0,-21.65 -9.74,-32.49 -29.24,-32.49l-133.19 0 0 -116.95 184.08 0c32.49,0 59.02,10.29 79.59,30.86 20.57,20.57 30.86,47.1 30.86,79.59l0 335.68c0,20.94 9.75,31.4 29.24,31.4l124.53 0 0 129.94 -124.53 0c-19.49,0 -29.24,10.47 -29.24,31.4l0 335.68c0,32.49 -10.29,59.02 -30.86,79.59 -20.57,20.58 -47.1,30.86 -79.59,30.86l-184.08 0zm-454.8 -49.81l318.36 -974.57 136.44 0 -318.36 974.57 -136.44 0zm-184.09 49.81c-32.49,0 -59.01,-10.29 -79.59,-30.86 -20.57,-20.57 -30.86,-47.1 -30.86,-79.59l0 -335.68c0,-20.94 -9.75,-31.4 -29.24,-31.4l-124.53 0 0 -129.94 124.53 0c19.49,0 29.24,-10.47 29.24,-31.4l0 -335.68c0,-32.49 10.29,-59.02 30.86,-79.59 20.57,-20.57 47.1,-30.86 79.59,-30.86l184.09 0 0 116.95 -133.19 0c-19.49,0 -29.24,10.83 -29.24,32.49l0 296.7c0,24.54 -7.76,45.12 -23.28,61.72 -15.52,16.6 -35.91,24.9 -61.18,24.9l-17.33 0 0 19.49 17.33 0c25.27,0 45.66,8.3 61.18,24.91 15.52,16.6 23.28,37.18 23.28,61.72l0 296.7c0,21.66 9.75,32.49 29.24,32.49l133.19 0 0 116.95 -184.09 0z"/>
 </g>
</svg>
