<?xml version="1.0" encoding="UTF-8"?>
<!DOCTYPE svg PUBLIC "-//W3C//DTD SVG 1.1//EN" "http://www.w3.org/Graphics/SVG/1.1/DTD/svg11.dtd">
<!-- Creator: CorelDRAW -->
<svg xmlns="http://www.w3.org/2000/svg" xml:space="preserve" width="173.698mm" height="38.9878mm" version="1.1" style="shape-rendering:geometricPrecision; text-rendering:geometricPrecision; image-rendering:optimizeQuality; fill-rule:evenodd; clip-rule:evenodd"
viewBox="0 0 1454.15 326.4"
 xmlns:xlink="http://www.w3.org/1999/xlink"
 xmlns:xodm="http://www.corel.com/coreldraw/odm/2003">
 <defs>
  <style type="text/css">
   <![CDATA[
    .fil1 {fill:#1D4ED8;fill-rule:nonzero}
    .fil0 {fill:url(#id0);fill-rule:nonzero}
   ]]>
  </style>
  <linearGradient id="id0" gradientUnits="userSpaceOnUse" x1="-0" y1="163.2" x2="871.76" y2="163.2">
   <stop offset="0" style="stop-opacity:1; stop-color:#3B8EED"/>
   <stop offset="0.4" style="stop-opacity:1; stop-color:#60A5FA"/>
   <stop offset="1" style="stop-opacity:1; stop-color:#2563EB"/>
  </linearGradient>
 </defs>
 <g id="Camada_x0020_1">
  <metadata id="CorelCorpID_0Corel-Layer"/>
  <g id="_2680813344">
   <path class="fil0" d="M828.79 326.4c-12.49,0 -22.93,-4.04 -31.31,-12.11 -8.38,-8.08 -12.57,-18.51 -12.57,-31.31 0,-12.8 4.19,-23.24 12.57,-31.31 8.38,-8.08 18.82,-12.11 31.31,-12.11 12.19,0 22.4,4.04 30.63,12.11 8.23,8.08 12.34,18.51 12.34,31.31 0,12.8 -4.11,23.24 -12.34,31.31 -8.23,8.08 -18.44,12.11 -30.63,12.11zm-221.25 -6.4l-72.23 -226.74 61.26 0 52.57 184.68 8.23 0 52.57 -184.68 61.26 0 -72.23 226.74 -91.43 0zm-256.91 -139.43l106.06 0c-1.22,-13.11 -6.48,-23.62 -15.77,-31.54 -9.3,-7.92 -21.41,-11.89 -36.34,-11.89 -15.54,0 -27.89,3.96 -37.03,11.89 -9.14,7.92 -14.78,18.44 -16.91,31.54zm55.31 145.83c-22.55,0 -42.44,-4.8 -59.66,-14.4 -17.22,-9.6 -30.63,-23.16 -40.23,-40.69 -9.6,-17.52 -14.4,-38.17 -14.4,-61.94l0 -5.49c0,-23.77 4.72,-44.42 14.17,-61.94 9.45,-17.52 22.71,-31.09 39.77,-40.69 17.07,-9.6 36.88,-14.4 59.43,-14.4 22.25,0 41.6,4.95 58.06,14.86 16.46,9.9 29.26,23.62 38.4,41.14 9.14,17.52 13.71,37.87 13.71,61.03l0 19.66 -165.03 0c0.61,15.54 6.4,28.19 17.37,37.94 10.97,9.75 24.38,14.63 40.23,14.63 16.15,0 28.04,-3.51 35.66,-10.51 7.62,-7.01 13.41,-14.78 17.37,-23.31l47.09 24.69c-4.27,7.92 -10.44,16.53 -18.51,25.83 -8.08,9.3 -18.82,17.22 -32.23,23.77 -13.41,6.55 -30.48,9.83 -51.2,9.83zm-286.17 -50.28c17.68,0 32.46,-5.71 44.34,-17.14 11.89,-11.43 17.83,-28.11 17.83,-50.06l0 -4.57c0,-21.94 -5.87,-38.63 -17.6,-50.06 -11.73,-11.43 -26.59,-17.14 -44.57,-17.14 -17.68,0 -32.46,5.71 -44.34,17.14 -11.89,11.43 -17.83,28.11 -17.83,50.06l0 4.57c0,21.94 5.94,38.63 17.83,50.06 11.89,11.43 26.67,17.14 44.34,17.14zm-17.37 50.28c-17.98,0 -34.82,-4.49 -50.51,-13.49 -15.7,-8.99 -28.27,-22.17 -37.71,-39.54 -9.45,-17.37 -14.17,-38.4 -14.17,-63.09l0 -7.31c0,-24.68 4.72,-45.71 14.17,-63.08 9.45,-17.37 21.94,-30.55 37.49,-39.54 15.54,-8.99 32.46,-13.49 50.74,-13.49 13.71,0 25.22,1.6 34.51,4.8 9.3,3.2 16.84,7.24 22.63,12.11 5.79,4.88 10.21,10.06 13.26,15.54l8.23 0 0 -119.31 57.6 0 0 320 -56.68 0 0 -27.43 -8.23 0c-5.18,8.53 -13.18,16.3 -24,23.31 -10.82,7.01 -26.59,10.51 -47.31,10.51z"/>
   <path class="fil1" d="M926.62 320l0 -320 138.97 0c20.11,0 37.64,3.5 52.57,10.51 14.93,7.01 26.51,16.91 34.74,29.71 8.23,12.8 12.34,27.89 12.34,45.26l0 5.49c0,19.2 -4.57,34.74 -13.71,46.63 -9.14,11.89 -20.42,20.57 -33.83,26.06l0 8.23c12.19,0.61 21.64,4.8 28.34,12.57 6.7,7.77 10.06,18.06 10.06,30.86l0 104.68 -60.34 0 0 -96c0,-7.31 -1.9,-13.26 -5.71,-17.83 -3.81,-4.57 -10.13,-6.86 -18.97,-6.86l-84.11 0 0 120.68 -60.34 0zm60.34 -175.54l72.23 0c14.32,0 25.52,-3.89 33.6,-11.66 8.08,-7.77 12.11,-18.06 12.11,-30.86l0 -4.57c0,-12.8 -3.96,-23.09 -11.89,-30.86 -7.92,-7.77 -19.2,-11.66 -33.83,-11.66l-72.23 0 0 89.6zm228.57 175.54l0 -320 138.97 0c20.11,0 37.64,3.5 52.57,10.51 14.93,7.01 26.51,16.91 34.74,29.71 8.23,12.8 12.34,27.89 12.34,45.26l0 5.49c0,19.2 -4.57,34.74 -13.71,46.63 -9.14,11.89 -20.42,20.57 -33.83,26.06l0 8.23c12.19,0.61 21.64,4.8 28.34,12.57 6.7,7.77 10.06,18.06 10.06,30.86l0 104.68 -60.34 0 0 -96c0,-7.31 -1.91,-13.26 -5.71,-17.83 -3.81,-4.57 -10.13,-6.86 -18.97,-6.86l-84.11 0 0 120.68 -60.34 0zm60.34 -175.54l72.23 0c14.32,0 25.52,-3.89 33.6,-11.66 8.08,-7.77 12.11,-18.06 12.11,-30.86l0 -4.57c0,-12.8 -3.96,-23.09 -11.89,-30.86 -7.92,-7.77 -19.2,-11.66 -33.83,-11.66l-72.23 0 0 89.6z"/>
  </g>
 </g>
</svg>
