<?xml version="1.0" encoding="UTF-8"?>
<!DOCTYPE svg PUBLIC "-//W3C//DTD SVG 1.1//EN" "http://www.w3.org/Graphics/SVG/1.1/DTD/svg11.dtd">
<!-- Creator: CorelDRAW -->
<svg xmlns="http://www.w3.org/2000/svg" xml:space="preserve" width="99.4251mm" height="79.8268mm" version="1.1" style="shape-rendering:geometricPrecision; text-rendering:geometricPrecision; image-rendering:optimizeQuality; fill-rule:evenodd; clip-rule:evenodd"
viewBox="0 0 723.66 581.02"
 xmlns:xlink="http://www.w3.org/1999/xlink"
 xmlns:xodm="http://www.corel.com/coreldraw/odm/2003">
 <defs>
  <style type="text/css">
   <![CDATA[
    .fil0 {fill:white;fill-rule:nonzero}
   ]]>
  </style>
 </defs>
 <g id="Camada_x0020_1">
  <metadata id="CorelCorpID_0Corel-Layer"/>
  <path class="fil0" d="M483.6 581.02l0 -62.62 71.32 0c10.44,0 15.66,-5.8 15.66,-17.4l0 -158.88c0,-13.14 4.16,-24.16 12.47,-33.05 8.31,-8.89 19.23,-13.34 32.76,-13.34l9.28 0 0 -10.44 -9.28 0c-13.53,0 -24.45,-4.44 -32.76,-13.34 -8.31,-8.89 -12.47,-19.91 -12.47,-33.05l0 -158.88c0,-11.6 -5.22,-17.4 -15.66,-17.4l-71.32 0 0 -62.62 98.58 0c17.4,0 31.6,5.51 42.62,16.53 11.02,11.02 16.53,25.22 16.53,42.62l0 179.76c0,11.21 5.22,16.82 15.66,16.82l66.68 0 0 69.58 -66.68 0c-10.44,0 -15.66,5.6 -15.66,16.82l0 179.76c0,17.4 -5.51,31.6 -16.53,42.62 -11.02,11.02 -25.22,16.53 -42.62,16.53l-98.58 0zm-243.54 -26.67l170.48 -521.87 73.06 0 -170.48 521.87 -73.06 0zm-98.58 26.67c-17.4,0 -31.6,-5.51 -42.62,-16.53 -11.02,-11.02 -16.53,-25.22 -16.53,-42.62l0 -179.76c0,-11.21 -5.22,-16.82 -15.66,-16.82l-66.68 0 0 -69.58 66.68 0c10.44,0 15.66,-5.6 15.66,-16.82l0 -179.76c0,-17.4 5.51,-31.6 16.53,-42.62 11.02,-11.02 25.22,-16.53 42.62,-16.53l98.58 0 0 62.62 -71.32 0c-10.44,0 -15.66,5.8 -15.66,17.4l0 158.88c0,13.14 -4.16,24.16 -12.47,33.05 -8.31,8.89 -19.23,13.34 -32.76,13.34l-9.28 0 0 10.44 9.28 0c13.53,0 24.45,4.45 32.76,13.34 8.31,8.89 12.47,19.91 12.47,33.05l0 158.88c0,11.6 5.22,17.4 15.66,17.4l71.32 0 0 62.62 -98.58 0z"/>
 </g>
</svg>
