<?xml version="1.0" encoding="UTF-8"?>
<!DOCTYPE svg PUBLIC "-//W3C//DTD SVG 1.1//EN" "http://www.w3.org/Graphics/SVG/1.1/DTD/svg11.dtd">
<!-- Creator: CorelDRAW -->
<svg xmlns="http://www.w3.org/2000/svg" xml:space="preserve" width="63.0139mm" height="38.2233mm" version="1.1" style="shape-rendering:geometricPrecision; text-rendering:geometricPrecision; image-rendering:optimizeQuality; fill-rule:evenodd; clip-rule:evenodd"
viewBox="0 0 298.64 181.15"
 xmlns:xlink="http://www.w3.org/1999/xlink"
 xmlns:xodm="http://www.corel.com/coreldraw/odm/2003">
 <defs>
  <style type="text/css">
   <![CDATA[
    .fil0 {fill:white;fill-rule:nonzero}
   ]]>
  </style>
 </defs>
 <g id="Camada_x0020_1">
  <metadata id="CorelCorpID_0Corel-Layer"/>
  <path class="fil0" d="M-0 181.15l0 -181.15 78.67 0c11.39,0 21.31,1.98 29.76,5.95 8.45,3.97 15.01,9.58 19.67,16.82 4.66,7.25 6.99,15.79 6.99,25.62l0 3.11c0,10.87 -2.59,19.67 -7.76,26.4 -5.18,6.73 -11.56,11.65 -19.15,14.75l0 4.66c6.9,0.35 12.25,2.72 16.05,7.12 3.8,4.4 5.69,10.22 5.69,17.47l0 59.26 -34.16 0 0 -54.35c0,-4.14 -1.08,-7.5 -3.23,-10.09 -2.16,-2.59 -5.74,-3.88 -10.74,-3.88l-47.62 0 0 68.32 -34.16 0zm34.16 -99.37l40.89 0c8.11,0 14.45,-2.2 19.02,-6.6 4.57,-4.4 6.86,-10.22 6.86,-17.47l0 -2.59c0,-7.25 -2.24,-13.07 -6.73,-17.47 -4.49,-4.4 -10.87,-6.6 -19.15,-6.6l-40.89 0 0 50.72zm129.39 99.37l0 -181.15 78.67 0c11.39,0 21.31,1.98 29.76,5.95 8.45,3.97 15.01,9.58 19.67,16.82 4.66,7.25 6.99,15.79 6.99,25.62l0 3.11c0,10.87 -2.59,19.67 -7.76,26.4 -5.18,6.73 -11.56,11.65 -19.15,14.75l0 4.66c6.9,0.35 12.25,2.72 16.04,7.12 3.8,4.4 5.69,10.22 5.69,17.47l0 59.26 -34.16 0 0 -54.35c0,-4.14 -1.08,-7.5 -3.24,-10.09 -2.16,-2.59 -5.74,-3.88 -10.74,-3.88l-47.62 0 0 68.32 -34.16 0zm34.16 -99.37l40.89 0c8.11,0 14.45,-2.2 19.02,-6.6 4.57,-4.4 6.86,-10.22 6.86,-17.47l0 -2.59c0,-7.25 -2.24,-13.07 -6.73,-17.47 -4.49,-4.4 -10.87,-6.6 -19.15,-6.6l-40.89 0 0 50.72z"/>
 </g>
</svg>
