<?xml version="1.0" encoding="UTF-8"?>
<!DOCTYPE svg PUBLIC "-//W3C//DTD SVG 1.1//EN" "http://www.w3.org/Graphics/SVG/1.1/DTD/svg11.dtd">
<!-- Creator: CorelDRAW -->
<svg xmlns="http://www.w3.org/2000/svg" xml:space="preserve" width="173.698mm" height="140.766mm" version="1.1" style="shape-rendering:geometricPrecision; text-rendering:geometricPrecision; image-rendering:optimizeQuality; fill-rule:evenodd; clip-rule:evenodd"
viewBox="0 0 2094.79 1697.63"
 xmlns:xlink="http://www.w3.org/1999/xlink"
 xmlns:xodm="http://www.corel.com/coreldraw/odm/2003">
 <defs>
  <style type="text/css">
   <![CDATA[
    .fil0 {fill:white;fill-rule:nonzero}
   ]]>
  </style>
 </defs>
 <g id="Camada_x0020_1">
  <metadata id="CorelCorpID_0Corel-Layer"/>
  <g id="_2949309632">
   <path class="fil0" d="M1264.82 1037.43l0 -111.82 127.35 0c18.64,0 27.95,-10.35 27.95,-31.06l0 -283.69c0,-23.47 7.42,-43.14 22.26,-59.02 14.84,-15.87 34.34,-23.81 58.5,-23.81l16.56 0 0 -18.64 -16.56 0c-24.16,0 -43.66,-7.94 -58.5,-23.81 -14.84,-15.87 -22.26,-35.55 -22.26,-59.01l0 -283.69c0,-20.71 -9.32,-31.06 -27.95,-31.06l-127.35 0 0 -111.82 176.01 0c31.06,0 56.43,9.83 76.1,29.51 19.67,19.67 29.51,45.04 29.51,76.1l0 320.96c0,20.02 9.32,30.02 27.95,30.02l119.07 0 0 124.24 -119.07 0c-18.64,0 -27.95,10.01 -27.95,30.02l0 320.96c0,31.06 -9.84,56.43 -29.51,76.1 -19.67,19.67 -45.04,29.51 -76.1,29.51l-176.01 0zm-434.85 -47.63l304.39 -931.82 130.45 0 -304.39 931.82 -130.45 0zm-176.01 47.63c-31.06,0 -56.42,-9.83 -76.1,-29.51 -19.67,-19.67 -29.51,-45.04 -29.51,-76.1l0 -320.96c0,-20.02 -9.32,-30.02 -27.96,-30.02l-119.06 0 0 -124.24 119.06 0c18.64,0 27.96,-10.01 27.96,-30.02l0 -320.96c0,-31.06 9.83,-56.43 29.51,-76.1 19.67,-19.67 45.04,-29.51 76.1,-29.51l176.01 0 0 111.82 -127.35 0c-18.64,0 -27.95,10.35 -27.95,31.06l0 283.69c0,23.47 -7.42,43.14 -22.26,59.01 -14.84,15.88 -34.34,23.81 -58.5,23.81l-16.57 0 0 18.64 16.57 0c24.16,0 43.66,7.94 58.5,23.81 14.84,15.88 22.26,35.55 22.26,59.02l0 283.69c0,20.71 9.32,31.06 27.95,31.06l127.35 0 0 111.82 -176.01 0z"/>
   <path class="fil0" d="M1193.92 1697.63c-18,0 -33.04,-5.82 -45.11,-17.45 -12.07,-11.63 -18.11,-26.67 -18.11,-45.11 0,-18.44 6.04,-33.47 18.11,-45.11 12.07,-11.63 27.11,-17.45 45.11,-17.45 17.56,0 32.27,5.82 44.12,17.45 11.85,11.63 17.78,26.67 17.78,45.11 0,18.44 -5.93,33.48 -17.78,45.11 -11.85,11.63 -26.56,17.45 -44.12,17.45zm-318.73 -9.22l-104.05 -326.63 88.24 0 75.73 266.05 11.85 0 75.73 -266.05 88.24 0 -104.05 326.63 -131.71 0zm-370.09 -200.85l152.78 0c-1.76,-18.88 -9.33,-34.02 -22.72,-45.44 -13.39,-11.41 -30.84,-17.12 -52.35,-17.12 -22.39,0 -40.17,5.71 -53.34,17.12 -13.17,11.41 -21.29,26.56 -24.37,45.44zm79.68 210.07c-32.49,0 -61.13,-6.91 -85.94,-20.74 -24.8,-13.83 -44.12,-33.37 -57.95,-58.61 -13.83,-25.24 -20.74,-54.99 -20.74,-89.23l0 -7.9c0,-34.24 6.8,-63.99 20.41,-89.23 13.61,-25.24 32.71,-44.78 57.29,-58.61 24.58,-13.83 53.12,-20.74 85.61,-20.74 32.05,0 59.93,7.13 83.63,21.4 23.71,14.27 42.15,34.02 55.32,59.27 13.17,25.24 19.76,54.55 19.76,87.91l0 28.32 -237.73 0c0.88,22.39 9.22,40.61 25.02,54.66 15.8,14.05 35.12,21.07 57.95,21.07 23.27,0 40.39,-5.05 51.37,-15.15 10.98,-10.1 19.32,-21.29 25.02,-33.59l67.83 35.56c-6.15,11.41 -15.04,23.82 -26.67,37.21 -11.63,13.39 -27.11,24.8 -46.43,34.24 -19.32,9.44 -43.9,14.16 -73.76,14.16zm-412.24 -72.44c25.46,0 46.76,-8.23 63.88,-24.7 17.12,-16.46 25.68,-40.5 25.68,-72.11l0 -6.59c0,-31.61 -8.45,-55.65 -25.35,-72.11 -16.9,-16.46 -38.3,-24.7 -64.21,-24.7 -25.46,0 -46.76,8.23 -63.88,24.7 -17.12,16.46 -25.68,40.5 -25.68,72.11l0 6.59c0,31.61 8.56,55.65 25.68,72.11 17.12,16.46 38.41,24.7 63.88,24.7zm-25.02 72.44c-25.9,0 -50.16,-6.47 -72.77,-19.43 -22.61,-12.95 -40.72,-31.94 -54.33,-56.96 -13.61,-25.02 -20.42,-55.32 -20.42,-90.88l0 -10.54c0,-35.56 6.81,-65.85 20.42,-90.88 13.61,-25.02 31.61,-44.01 54,-56.96 22.39,-12.95 46.76,-19.43 73.1,-19.43 19.76,0 36.33,2.3 49.72,6.91 13.39,4.61 24.25,10.43 32.6,17.45 8.34,7.02 14.71,14.49 19.1,22.39l11.85 0 0 -171.88 82.97 0 0 460.97 -81.66 0 0 -39.51 -11.85 0c-7.46,12.29 -18.99,23.49 -34.57,33.58 -15.59,10.1 -38.3,15.15 -68.16,15.15z"/>
   <path class="fil0" d="M1334.84 1688.41l0 -460.97 200.19 0c28.98,0 54.22,5.05 75.73,15.15 21.51,10.1 38.19,24.37 50.05,42.8 11.85,18.44 17.78,40.17 17.78,65.19l0 7.9c0,27.66 -6.59,50.05 -19.76,67.17 -13.17,17.12 -29.41,29.63 -48.73,37.54l0 11.85c17.56,0.88 31.17,6.91 40.83,18.11 9.66,11.2 14.49,26.01 14.49,44.45l0 150.8 -86.93 0 0 -138.29c0,-10.54 -2.74,-19.1 -8.23,-25.68 -5.49,-6.59 -14.6,-9.88 -27.33,-9.88l-121.17 0 0 173.85 -86.93 0zm86.93 -252.88l104.05 0c20.63,0 36.77,-5.6 48.4,-16.79 11.63,-11.2 17.45,-26.01 17.45,-44.45l0 -6.58c0,-18.44 -5.71,-33.26 -17.12,-44.45 -11.41,-11.2 -27.66,-16.79 -48.73,-16.79l-104.05 0 0 129.07zm329.27 252.88l0 -460.97 200.19 0c28.98,0 54.22,5.05 75.73,15.15 21.51,10.1 38.2,24.37 50.05,42.8 11.85,18.44 17.78,40.17 17.78,65.19l0 7.9c0,27.66 -6.59,50.05 -19.76,67.17 -13.17,17.12 -29.41,29.63 -48.73,37.54l0 11.85c17.56,0.88 31.17,6.91 40.83,18.11 9.66,11.2 14.49,26.01 14.49,44.45l0 150.8 -86.93 0 0 -138.29c0,-10.54 -2.74,-19.1 -8.23,-25.68 -5.49,-6.59 -14.6,-9.88 -27.33,-9.88l-121.17 0 0 173.85 -86.93 0zm86.93 -252.88l104.05 0c20.63,0 36.77,-5.6 48.4,-16.79 11.63,-11.2 17.45,-26.01 17.45,-44.45l0 -6.58c0,-18.44 -5.71,-33.26 -17.12,-44.45 -11.41,-11.2 -27.66,-16.79 -48.73,-16.79l-104.05 0 0 129.07z"/>
  </g>
 </g>
</svg>
