<?xml version="1.0" encoding="UTF-8"?>
<!DOCTYPE svg PUBLIC "-//W3C//DTD SVG 1.1//EN" "http://www.w3.org/Graphics/SVG/1.1/DTD/svg11.dtd">
<!-- Creator: CorelDRAW -->
<svg xmlns="http://www.w3.org/2000/svg" xml:space="preserve" width="63.0139mm" height="38.2233mm" version="1.1" style="shape-rendering:geometricPrecision; text-rendering:geometricPrecision; image-rendering:optimizeQuality; fill-rule:evenodd; clip-rule:evenodd"
viewBox="0 0 571.27 346.52"
 xmlns:xlink="http://www.w3.org/1999/xlink"
 xmlns:xodm="http://www.corel.com/coreldraw/odm/2003">
 <defs>
  <style type="text/css">
   <![CDATA[
    .fil0 {fill:black;fill-rule:nonzero}
   ]]>
  </style>
 </defs>
 <g id="Camada_x0020_1">
  <metadata id="CorelCorpID_0Corel-Layer"/>
  <path class="fil0" d="M-0 346.52l0 -346.52 150.49 0c21.78,0 40.76,3.79 56.93,11.39 16.17,7.59 28.71,18.32 37.62,32.18 8.91,13.86 13.37,30.2 13.37,49.01l0 5.94c0,20.79 -4.95,37.62 -14.85,50.49 -9.9,12.87 -22.11,22.28 -36.63,28.22l0 8.91c13.2,0.66 23.43,5.2 30.69,13.61 7.26,8.42 10.89,19.55 10.89,33.41l0 113.36 -65.34 0 0 -103.96c0,-7.92 -2.06,-14.36 -6.19,-19.31 -4.13,-4.95 -10.97,-7.43 -20.54,-7.43l-91.09 0 0 130.69 -65.34 0zm65.34 -190.09l78.21 0c15.51,0 27.64,-4.21 36.39,-12.62 8.75,-8.42 13.12,-19.55 13.12,-33.42l0 -4.95c0,-13.86 -4.29,-25 -12.87,-33.41 -8.58,-8.42 -20.79,-12.62 -36.63,-12.62l-78.21 0 0 97.03zm247.52 190.09l0 -346.52 150.49 0c21.78,0 40.76,3.79 56.93,11.39 16.17,7.59 28.71,18.32 37.62,32.18 8.91,13.86 13.37,30.2 13.37,49.01l0 5.94c0,20.79 -4.95,37.62 -14.85,50.49 -9.9,12.87 -22.11,22.28 -36.63,28.22l0 8.91c13.2,0.66 23.43,5.2 30.69,13.61 7.26,8.42 10.89,19.55 10.89,33.41l0 113.36 -65.34 0 0 -103.96c0,-7.92 -2.06,-14.36 -6.19,-19.31 -4.12,-4.95 -10.97,-7.43 -20.54,-7.43l-91.09 0 0 130.69 -65.34 0zm65.34 -190.09l78.22 0c15.51,0 27.64,-4.21 36.38,-12.62 8.75,-8.42 13.12,-19.55 13.12,-33.42l0 -4.95c0,-13.86 -4.29,-25 -12.87,-33.41 -8.58,-8.42 -20.79,-12.62 -36.63,-12.62l-78.22 0 0 97.03z"/>
 </g>
</svg>
