<?xml version="1.0" encoding="UTF-8"?>
<!DOCTYPE svg PUBLIC "-//W3C//DTD SVG 1.1//EN" "http://www.w3.org/Graphics/SVG/1.1/DTD/svg11.dtd">
<!-- Creator: CorelDRAW -->
<svg xmlns="http://www.w3.org/2000/svg" xml:space="preserve" width="250.954mm" height="54.714mm" version="1.1" style="shape-rendering:geometricPrecision; text-rendering:geometricPrecision; image-rendering:optimizeQuality; fill-rule:evenodd; clip-rule:evenodd"
viewBox="0 0 2926.39 638.02"
 xmlns:xlink="http://www.w3.org/1999/xlink"
 xmlns:xodm="http://www.corel.com/coreldraw/odm/2003">
 <defs>
  <style type="text/css">
   <![CDATA[
    .fil1 {fill:#1D4ED8;fill-rule:nonzero}
    .fil0 {fill:url(#id0);fill-rule:nonzero}
   ]]>
  </style>
  <linearGradient id="id0" gradientUnits="userSpaceOnUse" x1="-0" y1="319.01" x2="2115.17" y2="319.01">
   <stop offset="0" style="stop-opacity:1; stop-color:#7C3AED"/>
   <stop offset="0.4" style="stop-opacity:1; stop-color:#60A5FA"/>
   <stop offset="1" style="stop-opacity:1; stop-color:#2563EB"/>
  </linearGradient>
 </defs>
 <g id="Camada_x0020_1">
  <metadata id="CorelCorpID_0Corel-Layer"/>
  <g id="_2908576080">
   <path class="fil0" d="M155.37 638.02c-19.1,0 -34.7,-6.05 -46.8,-18.15 -12.1,-12.1 -18.15,-27.7 -18.15,-46.8l0 -197.39c0,-12.31 -5.73,-18.47 -17.19,-18.47l-73.23 0 0 -76.41 73.23 0c11.46,0 17.19,-6.15 17.19,-18.47l0 -197.39c0,-19.1 6.05,-34.7 18.15,-46.8 12.1,-12.1 27.7,-18.15 46.8,-18.15l108.25 0 0 68.77 -78.32 0c-11.46,0 -17.19,6.37 -17.19,19.1l0 174.47c0,14.43 -4.56,26.53 -13.69,36.29 -9.13,9.76 -21.12,14.65 -35.98,14.65l-10.19 0 0 11.46 10.19 0c14.86,0 26.85,4.88 35.98,14.65 9.13,9.76 13.69,21.86 13.69,36.3l0 174.47c0,12.74 5.73,19.1 17.19,19.1l78.32 0 0 68.77 -108.25 0zm108.25 -29.29l187.2 -573.08 80.23 0 -187.2 573.08 -80.23 0zm267.43 29.29l0 -68.77 78.32 0c11.46,0 17.19,-6.37 17.19,-19.1l0 -174.47c0,-14.43 4.56,-26.53 13.69,-36.3 9.13,-9.76 21.12,-14.65 35.98,-14.65l10.19 0 0 -11.46 -10.19 0c-14.86,0 -26.85,-4.88 -35.98,-14.65 -9.13,-9.76 -13.69,-21.86 -13.69,-36.29l0 -174.47c0,-12.73 -5.73,-19.1 -17.19,-19.1l-78.32 0 0 -68.77 108.25 0c19.1,0 34.7,6.05 46.8,18.15 12.1,12.1 18.15,27.7 18.15,46.8l0 197.39c0,12.31 5.73,18.47 17.19,18.47l73.23 0 0 76.41 -73.23 0c-11.46,0 -17.19,6.15 -17.19,18.47l0 197.39c0,19.1 -6.05,34.7 -18.15,46.8 -12.1,12.1 -27.7,18.15 -46.8,18.15l-108.25 0zm512.47 -91.69c-25.05,0 -48.5,-6.26 -70.36,-18.78 -21.86,-12.52 -39.37,-30.88 -52.53,-55.08 -13.16,-24.2 -19.74,-53.49 -19.74,-87.87l0 -10.19c0,-34.38 6.58,-63.68 19.74,-87.87 13.16,-24.2 30.56,-42.56 52.21,-55.08 21.65,-12.52 45.21,-18.78 70.68,-18.78 19.1,0 35.13,2.23 48.08,6.69 12.95,4.46 23.45,10.08 31.52,16.87 8.07,6.79 14.22,14.01 18.47,21.65l11.46 0 0 -166.19 80.23 0 0 445.72 -78.96 0 0 -38.2 -11.46 0c-7.22,11.88 -18.36,22.71 -33.43,32.47 -15.07,9.76 -37.04,14.65 -65.9,14.65zm24.2 -70.04c24.62,0 45.21,-7.96 61.76,-23.88 16.56,-15.92 24.83,-39.16 24.83,-69.72l0 -6.37c0,-30.56 -8.17,-53.81 -24.52,-69.72 -16.34,-15.92 -37.04,-23.88 -62.08,-23.88 -24.62,0 -45.21,7.96 -61.77,23.88 -16.56,15.92 -24.83,39.16 -24.83,69.72l0 6.37c0,30.56 8.28,53.81 24.83,69.72 16.56,15.92 37.14,23.88 61.77,23.88zm398.61 70.04c-31.41,0 -59.11,-6.69 -83.1,-20.06 -23.98,-13.37 -42.66,-32.26 -56.03,-56.67 -13.37,-24.41 -20.06,-53.17 -20.06,-86.28l0 -7.64c0,-33.11 6.58,-61.87 19.74,-86.28 13.16,-24.41 31.63,-43.3 55.4,-56.67 23.77,-13.37 51.36,-20.06 82.78,-20.06 30.99,0 57.94,6.9 80.87,20.69 22.92,13.8 40.75,32.9 53.49,57.31 12.74,24.41 19.1,52.74 19.1,85.01l0 27.38 -229.87 0c0.85,21.65 8.91,39.27 24.2,52.85 15.28,13.58 33.96,20.38 56.03,20.38 22.5,0 39.05,-4.88 49.67,-14.65 10.61,-9.76 18.68,-20.59 24.2,-32.47l65.59 34.38c-5.94,11.04 -14.54,23.03 -25.79,35.98 -11.25,12.95 -26.21,23.98 -44.89,33.11 -18.68,9.13 -42.45,13.69 -71.32,13.69zm-77.05 -203.12l147.73 0c-1.7,-18.25 -9.02,-32.9 -21.97,-43.94 -12.95,-11.04 -29.82,-16.56 -50.62,-16.56 -21.65,0 -38.84,5.52 -51.58,16.56 -12.74,11.04 -20.59,25.68 -23.56,43.94zm357.85 194.21l-100.61 -315.83 85.33 0 73.23 257.25 11.46 0 73.23 -257.25 85.32 0 -100.61 315.83 -127.35 0zm308.19 8.91c-17.4,0 -31.94,-5.62 -43.62,-16.87 -11.67,-11.25 -17.51,-25.79 -17.51,-43.62 0,-17.83 5.84,-32.37 17.51,-43.62 11.67,-11.25 26.21,-16.87 43.62,-16.87 16.98,0 31.2,5.62 42.66,16.87 11.46,11.25 17.19,25.79 17.19,43.62 0,17.83 -5.73,32.37 -17.19,43.62 -11.46,11.25 -25.68,16.87 -42.66,16.87z"/>
   <path class="fil1" d="M2191.58 537.42l0 -445.72 193.57 0c28.02,0 52.43,4.88 73.23,14.65 20.8,9.76 36.93,23.56 48.39,41.39 11.46,17.83 17.19,38.84 17.19,63.04l0 7.64c0,26.74 -6.37,48.39 -19.1,64.95 -12.74,16.56 -28.44,28.65 -47.12,36.3l0 11.46c16.98,0.85 30.14,6.69 39.48,17.51 9.34,10.82 14.01,25.15 14.01,42.98l0 145.82 -84.05 0 0 -133.72c0,-10.19 -2.65,-18.47 -7.96,-24.83 -5.31,-6.37 -14.11,-9.55 -26.43,-9.55l-117.16 0 0 168.1 -84.05 0zm84.05 -244.51l100.61 0c19.95,0 35.55,-5.41 46.8,-16.24 11.25,-10.82 16.87,-25.15 16.87,-42.98l0 -6.37c0,-17.83 -5.52,-32.16 -16.56,-42.98 -11.04,-10.82 -26.74,-16.24 -47.12,-16.24l-100.61 0 0 124.8zm318.37 244.51l0 -445.72 193.57 0c28.02,0 52.43,4.88 73.23,14.65 20.8,9.76 36.93,23.56 48.39,41.39 11.46,17.83 17.19,38.84 17.19,63.04l0 7.64c0,26.74 -6.37,48.39 -19.1,64.95 -12.74,16.56 -28.44,28.65 -47.12,36.3l0 11.46c16.98,0.85 30.14,6.69 39.48,17.51 9.34,10.82 14.01,25.15 14.01,42.98l0 145.82 -84.05 0 0 -133.72c0,-10.19 -2.65,-18.47 -7.96,-24.83 -5.31,-6.37 -14.11,-9.55 -26.43,-9.55l-117.16 0 0 168.1 -84.05 0zm84.05 -244.51l100.61 0c19.95,0 35.55,-5.41 46.8,-16.24 11.25,-10.82 16.87,-25.15 16.87,-42.98l0 -6.37c0,-17.83 -5.52,-32.16 -16.56,-42.98 -11.04,-10.82 -26.74,-16.24 -47.12,-16.24l-100.61 0 0 124.8z"/>
  </g>
 </g>
</svg>
