<?xml version="1.0" encoding="UTF-8"?>
<!DOCTYPE svg PUBLIC "-//W3C//DTD SVG 1.1//EN" "http://www.w3.org/Graphics/SVG/1.1/DTD/svg11.dtd">
<!-- Creator: CorelDRAW -->
<svg xmlns="http://www.w3.org/2000/svg" xml:space="preserve" width="250.954mm" height="54.714mm" version="1.1" style="shape-rendering:geometricPrecision; text-rendering:geometricPrecision; image-rendering:optimizeQuality; fill-rule:evenodd; clip-rule:evenodd"
viewBox="0 0 4149.98 904.8"
 xmlns:xlink="http://www.w3.org/1999/xlink"
 xmlns:xodm="http://www.corel.com/coreldraw/odm/2003">
 <defs>
  <style type="text/css">
   <![CDATA[
    .fil0 {fill:white;fill-rule:nonzero}
   ]]>
  </style>
 </defs>
 <g id="Camada_x0020_1">
  <metadata id="CorelCorpID_0Corel-Layer"/>
  <g id="_2948588992">
   <path class="fil0" d="M220.33 904.8c-27.09,0 -49.21,-8.58 -66.37,-25.74 -17.16,-17.16 -25.73,-39.28 -25.73,-66.37l0 -279.93c0,-17.46 -8.13,-26.19 -24.38,-26.19l-103.84 0 0 -108.36 103.84 0c16.25,0 24.38,-8.73 24.38,-26.19l0 -279.93c0,-27.09 8.58,-49.21 25.73,-66.37 17.16,-17.16 39.28,-25.73 66.37,-25.73l153.51 0 0 97.52 -111.07 0c-16.25,0 -24.38,9.03 -24.38,27.09l0 247.42c0,20.47 -6.47,37.62 -19.41,51.47 -12.94,13.85 -29.95,20.77 -51.02,20.77l-14.45 0 0 16.25 14.45 0c21.07,0 38.08,6.92 51.02,20.77 12.94,13.85 19.41,31 19.41,51.47l0 247.42c0,18.06 8.13,27.09 24.38,27.09l111.07 0 0 97.52 -153.51 0zm153.51 -41.54l265.48 -812.69 113.78 0 -265.48 812.69 -113.78 0zm379.26 41.54l0 -97.52 111.07 0c16.25,0 24.38,-9.03 24.38,-27.09l0 -247.42c0,-20.47 6.47,-37.62 19.41,-51.47 12.94,-13.84 29.95,-20.77 51.02,-20.77l14.45 0 0 -16.25 -14.45 0c-21.07,0 -38.08,-6.92 -51.02,-20.77 -12.94,-13.84 -19.41,-31 -19.41,-51.47l0 -247.42c0,-18.06 -8.13,-27.09 -24.38,-27.09l-111.07 0 0 -97.52 153.51 0c27.09,0 49.21,8.58 66.37,25.73 17.16,17.16 25.74,39.28 25.74,66.37l0 279.93c0,17.46 8.13,26.19 24.38,26.19l103.84 0 0 108.36 -103.84 0c-16.25,0 -24.38,8.73 -24.38,26.19l0 279.93c0,27.09 -8.58,49.21 -25.74,66.37 -17.16,17.16 -39.28,25.74 -66.37,25.74l-153.51 0zm726.74 -130.03c-35.52,0 -68.78,-8.88 -99.78,-26.64 -31,-17.76 -55.84,-43.8 -74.5,-78.11 -18.66,-34.31 -27.99,-75.85 -27.99,-124.61l0 -14.45c0,-48.76 9.33,-90.3 27.99,-124.61 18.66,-34.31 43.34,-60.35 74.05,-78.11 30.7,-17.76 64.11,-26.64 100.23,-26.64 27.09,0 49.82,3.16 68.18,9.48 18.36,6.32 33.26,14.3 44.7,23.93 11.44,9.63 20.17,19.87 26.19,30.7l16.25 0 0 -235.68 113.78 0 0 632.09 -111.97 0 0 -54.18 -16.26 0c-10.23,16.85 -26.04,32.21 -47.41,46.05 -21.37,13.85 -52.52,20.77 -93.46,20.77zm34.31 -99.33c34.92,0 64.11,-11.29 87.59,-33.86 23.48,-22.57 35.22,-55.53 35.22,-98.88l0 -9.03c0,-43.34 -11.59,-76.3 -34.77,-98.88 -23.18,-22.57 -52.52,-33.86 -88.04,-33.86 -34.92,0 -64.11,11.29 -87.59,33.86 -23.48,22.57 -35.22,55.53 -35.22,98.88l0 9.03c0,43.34 11.74,76.3 35.22,98.88 23.48,22.57 52.67,33.86 87.59,33.86zm565.27 99.33c-44.55,0 -83.83,-9.48 -117.84,-28.44 -34.01,-18.96 -60.5,-45.75 -79.46,-80.37 -18.96,-34.61 -28.44,-75.4 -28.44,-122.35l0 -10.84c0,-46.95 9.33,-87.74 27.99,-122.35 18.66,-34.61 44.85,-61.4 78.56,-80.37 33.71,-18.96 72.84,-28.44 117.39,-28.44 43.95,0 82.17,9.78 114.68,29.35 32.51,19.56 57.79,46.66 75.85,81.27 18.06,34.61 27.09,74.8 27.09,120.55l0 38.83 -325.98 0c1.2,30.7 12.64,55.68 34.31,74.95 21.67,19.26 48.16,28.9 79.46,28.9 31.91,0 55.38,-6.92 70.43,-20.77 15.05,-13.85 26.49,-29.2 34.31,-46.05l93.01 48.76c-8.43,15.65 -20.62,32.66 -36.57,51.02 -15.95,18.36 -37.17,34.01 -63.66,46.95 -26.49,12.94 -60.2,19.41 -101.13,19.41zm-109.26 -288.05l209.49 0c-2.41,-25.89 -12.79,-46.66 -31.15,-62.31 -18.36,-15.65 -42.29,-23.48 -71.79,-23.48 -30.7,0 -55.08,7.83 -73.14,23.48 -18.06,15.65 -29.2,36.42 -33.41,62.31zm507.48 275.41l-142.67 -447.88 121 0 103.84 364.81 16.25 0 103.84 -364.81 121 0 -142.67 447.88 -180.6 0zm437.05 12.64c-24.68,0 -45.3,-7.98 -61.85,-23.93 -16.56,-15.95 -24.83,-36.57 -24.83,-61.86 0,-25.28 8.28,-45.9 24.83,-61.85 16.56,-15.95 37.17,-23.93 61.85,-23.93 24.08,0 44.25,7.98 60.5,23.93 16.25,15.95 24.38,36.57 24.38,61.85 0,25.28 -8.13,45.9 -24.38,61.86 -16.25,15.95 -36.42,23.93 -60.5,23.93z"/>
   <path class="fil0" d="M3107.93 762.12l0 -632.09 274.51 0c39.73,0 74.35,6.92 103.84,20.77 29.5,13.85 52.37,33.41 68.63,58.69 16.25,25.28 24.38,55.08 24.38,89.4l0 10.83c0,37.93 -9.03,68.63 -27.09,92.11 -18.06,23.48 -40.33,40.63 -66.82,51.47l0 16.25c24.08,1.2 42.74,9.48 55.99,24.83 13.24,15.35 19.87,35.67 19.87,60.95l0 206.79 -119.2 0 0 -189.63c0,-14.45 -3.76,-26.19 -11.29,-35.22 -7.53,-9.03 -20.02,-13.55 -37.47,-13.55l-166.15 0 0 238.39 -119.19 0zm119.19 -346.75l142.67 0c28.29,0 50.42,-7.67 66.37,-23.03 15.95,-15.35 23.93,-35.67 23.93,-60.95l0 -9.03c0,-25.28 -7.83,-45.6 -23.48,-60.95 -15.65,-15.35 -37.93,-23.03 -66.82,-23.03l-142.67 0 0 176.99zm451.5 346.75l0 -632.09 274.51 0c39.73,0 74.35,6.92 103.84,20.77 29.5,13.85 52.37,33.41 68.63,58.69 16.25,25.28 24.38,55.08 24.38,89.4l0 10.83c0,37.93 -9.03,68.63 -27.09,92.11 -18.06,23.48 -40.33,40.63 -66.82,51.47l0 16.25c24.08,1.2 42.74,9.48 55.99,24.83 13.24,15.35 19.87,35.67 19.87,60.95l0 206.79 -119.19 0 0 -189.63c0,-14.45 -3.76,-26.19 -11.29,-35.22 -7.52,-9.03 -20.02,-13.55 -37.47,-13.55l-166.15 0 0 238.39 -119.19 0zm119.19 -346.75l142.67 0c28.29,0 50.42,-7.67 66.37,-23.03 15.95,-15.35 23.93,-35.67 23.93,-60.95l0 -9.03c0,-25.28 -7.83,-45.6 -23.48,-60.95 -15.65,-15.35 -37.93,-23.03 -66.82,-23.03l-142.67 0 0 176.99z"/>
  </g>
 </g>
</svg>
