<?xml version="1.0" encoding="UTF-8"?>
<!DOCTYPE svg PUBLIC "-//W3C//DTD SVG 1.1//EN" "http://www.w3.org/Graphics/SVG/1.1/DTD/svg11.dtd">
<!-- Creator: CorelDRAW -->
<svg xmlns="http://www.w3.org/2000/svg" xml:space="preserve" width="173.698mm" height="140.766mm" version="1.1" style="shape-rendering:geometricPrecision; text-rendering:geometricPrecision; image-rendering:optimizeQuality; fill-rule:evenodd; clip-rule:evenodd"
viewBox="0 0 3744.39 3034.49"
 xmlns:xlink="http://www.w3.org/1999/xlink"
 xmlns:xodm="http://www.corel.com/coreldraw/odm/2003">
 <defs>
  <style type="text/css">
   <![CDATA[
    .fil0 {fill:black;fill-rule:nonzero}
   ]]>
  </style>
 </defs>
 <g id="Camada_x0020_1">
  <metadata id="CorelCorpID_0Corel-Layer"/>
  <g id="_2680832304">
   <path class="fil0" d="M2260.84 1854.38l0 -199.87 227.63 0c33.31,0 49.97,-18.51 49.97,-55.52l0 -507.09c0,-41.95 13.26,-77.11 39.79,-105.49 26.53,-28.37 61.38,-42.56 104.56,-42.56l29.61 0 0 -33.31 -29.61 0c-43.18,0 -78.04,-14.19 -104.56,-42.56 -26.53,-28.38 -39.79,-63.54 -39.79,-105.49l0 -507.09c0,-37.01 -16.65,-55.52 -49.97,-55.52l-227.63 0 0 -199.87 314.61 0c55.52,0 100.86,17.58 136.02,52.74 35.16,35.16 52.75,80.5 52.75,136.03l0 573.71c0,35.78 16.65,53.67 49.97,53.67l212.83 0 0 222.08 -212.83 0c-33.31,0 -49.97,17.89 -49.97,53.67l0 573.71c0,55.52 -17.58,100.86 -52.75,136.02 -35.16,35.17 -80.5,52.75 -136.02,52.75l-314.61 0zm-777.28 -85.13l544.1 -1665.61 233.19 0 -544.1 1665.61 -233.19 0zm-314.62 85.13c-55.52,0 -100.86,-17.58 -136.02,-52.75 -35.16,-35.16 -52.74,-80.5 -52.74,-136.02l0 -573.71c0,-35.78 -16.66,-53.67 -49.97,-53.67l-212.83 0 0 -222.08 212.83 0c33.31,0 49.97,-17.89 49.97,-53.67l0 -573.71c0,-55.52 17.58,-100.86 52.74,-136.03 35.16,-35.16 80.5,-52.74 136.02,-52.74l314.62 0 0 199.87 -227.63 0c-33.31,0 -49.97,18.51 -49.97,55.52l0 507.09c0,41.95 -13.26,77.11 -39.79,105.49 -26.53,28.38 -61.38,42.56 -104.56,42.56l-29.61 0 0 33.31 29.61 0c43.18,0 78.04,14.19 104.56,42.56 26.53,28.38 39.79,63.54 39.79,105.49l0 507.09c0,37.01 16.66,55.52 49.97,55.52l227.63 0 0 199.87 -314.62 0z"/>
   <path class="fil0" d="M2134.1 3034.49c-32.17,0 -59.05,-10.4 -80.63,-31.19 -21.58,-20.8 -32.37,-47.67 -32.37,-80.63 0,-32.96 10.79,-59.84 32.37,-80.63 21.58,-20.8 48.46,-31.19 80.63,-31.19 31.39,0 57.68,10.4 78.87,31.19 21.19,20.8 31.78,47.67 31.78,80.63 0,32.96 -10.6,59.84 -31.78,80.63 -21.19,20.8 -47.47,31.19 -78.87,31.19zm-569.72 -16.48l-185.98 -583.85 157.73 0 135.37 475.55 21.19 0 135.37 -475.55 157.73 0 -185.98 583.85 -235.42 0zm-661.54 -359.02l273.09 0c-3.14,-33.75 -16.67,-60.82 -40.61,-81.22 -23.93,-20.4 -55.13,-30.61 -93.58,-30.61 -40.02,0 -71.8,10.2 -95.35,30.61 -23.54,20.4 -38.06,47.47 -43.55,81.22zm142.43 375.5c-58.07,0 -109.28,-12.36 -153.61,-37.08 -44.34,-24.72 -78.87,-59.64 -103.59,-104.76 -24.72,-45.12 -37.08,-98.29 -37.08,-159.5l0 -14.13c0,-61.21 12.16,-114.37 36.49,-159.5 24.33,-45.12 58.46,-80.05 102.41,-104.76 43.94,-24.72 94.95,-37.08 153.02,-37.08 57.29,0 107.12,12.75 149.49,38.25 42.38,25.5 75.34,60.82 98.88,105.94 23.54,45.12 35.31,97.5 35.31,157.14l0 50.62 -424.94 0c1.57,40.02 16.48,72.59 44.73,97.7 28.25,25.11 62.78,37.67 103.59,37.67 41.59,0 72.2,-9.03 91.82,-27.07 19.62,-18.05 34.53,-38.06 44.73,-60.03l121.24 63.56c-10.99,20.4 -26.88,42.57 -47.67,66.51 -20.8,23.93 -48.46,44.34 -82.99,61.21 -34.53,16.87 -78.47,25.31 -131.84,25.31zm-736.87 -129.48c45.52,0 83.57,-14.71 114.18,-44.14 30.61,-29.43 45.91,-72.39 45.91,-128.89l0 -11.77c0,-56.5 -15.11,-99.47 -45.32,-128.89 -30.21,-29.43 -68.47,-44.14 -114.77,-44.14 -45.52,0 -83.58,14.71 -114.18,44.14 -30.6,29.43 -45.91,72.39 -45.91,128.89l0 11.77c0,56.5 15.3,99.47 45.91,128.89 30.6,29.43 68.67,44.14 114.18,44.14zm-44.73 129.48c-46.3,0 -89.66,-11.57 -130.07,-34.72 -40.41,-23.15 -72.78,-57.09 -97.11,-101.82 -24.33,-44.73 -36.49,-98.88 -36.49,-162.44l0 -18.83c0,-63.56 12.16,-117.71 36.49,-162.44 24.33,-44.73 56.5,-78.67 96.52,-101.82 40.02,-23.15 83.57,-34.73 130.66,-34.73 35.31,0 64.94,4.12 88.87,12.36 23.93,8.24 43.36,18.64 58.27,31.2 14.91,12.55 26.29,25.9 34.14,40.02l21.19 0 0 -307.23 148.32 0 0 823.98 -145.96 0 0 -70.62 -21.19 0c-13.34,21.97 -33.94,41.98 -61.8,60.03 -27.86,18.05 -68.47,27.07 -121.83,27.07z"/>
   <path class="fil0" d="M2386.01 3018l0 -823.98 357.84 0c51.79,0 96.92,9.02 135.37,27.07 38.45,18.05 68.27,43.55 89.46,76.51 21.19,32.96 31.78,71.8 31.78,116.53l0 14.12c0,49.44 -11.77,89.46 -35.31,120.07 -23.54,30.61 -52.58,52.97 -87.11,67.1l0 21.19c31.39,1.57 55.72,12.36 72.98,32.37 17.26,20.01 25.9,46.5 25.9,79.45l0 269.56 -155.38 0 0 -247.19c0,-18.83 -4.9,-34.14 -14.71,-45.91 -9.81,-11.77 -26.09,-17.66 -48.85,-17.66l-216.59 0 0 310.76 -155.38 0zm155.38 -452.01l185.98 0c36.88,0 65.72,-10 86.52,-30.02 20.8,-20.01 31.19,-46.5 31.19,-79.46l0 -11.77c0,-32.96 -10.2,-59.44 -30.6,-79.45 -20.4,-20.01 -49.44,-30.02 -87.11,-30.02l-185.98 0 0 230.71zm588.56 452.01l0 -823.98 357.84 0c51.79,0 96.92,9.02 135.37,27.07 38.45,18.05 68.27,43.55 89.46,76.51 21.19,32.96 31.78,71.8 31.78,116.53l0 14.12c0,49.44 -11.77,89.46 -35.31,120.07 -23.54,30.61 -52.58,52.97 -87.11,67.1l0 21.19c31.39,1.57 55.72,12.36 72.98,32.37 17.26,20.01 25.9,46.5 25.9,79.45l0 269.56 -155.38 0 0 -247.19c0,-18.83 -4.91,-34.14 -14.71,-45.91 -9.81,-11.77 -26.09,-17.66 -48.85,-17.66l-216.59 0 0 310.76 -155.38 0zm155.38 -452.01l185.98 0c36.88,0 65.72,-10 86.52,-30.02 20.8,-20.01 31.2,-46.5 31.2,-79.46l0 -11.77c0,-32.96 -10.2,-59.44 -30.61,-79.45 -20.4,-20.01 -49.44,-30.02 -87.11,-30.02l-185.98 0 0 230.71z"/>
  </g>
 </g>
</svg>
