<?xml version="1.0" encoding="UTF-8"?>
<!DOCTYPE svg PUBLIC "-//W3C//DTD SVG 1.1//EN" "http://www.w3.org/Graphics/SVG/1.1/DTD/svg11.dtd">
<!-- Creator: CorelDRAW -->
<svg xmlns="http://www.w3.org/2000/svg" xml:space="preserve" width="250.954mm" height="54.714mm" version="1.1" style="shape-rendering:geometricPrecision; text-rendering:geometricPrecision; image-rendering:optimizeQuality; fill-rule:evenodd; clip-rule:evenodd"
viewBox="0 0 7132.1 1554.97"
 xmlns:xlink="http://www.w3.org/1999/xlink"
 xmlns:xodm="http://www.corel.com/coreldraw/odm/2003">
 <defs>
  <style type="text/css">
   <![CDATA[
    .fil0 {fill:black;fill-rule:nonzero}
   ]]>
  </style>
 </defs>
 <g id="Camada_x0020_1">
  <metadata id="CorelCorpID_0Corel-Layer"/>
  <g id="_2907431600">
   <path class="fil0" d="M378.65 1554.97c-46.55,0 -84.57,-14.74 -114.06,-44.23 -29.49,-29.48 -44.23,-67.5 -44.23,-114.06l0 -481.08c0,-30 -13.97,-45 -41.9,-45l-178.46 0 0 -186.22 178.46 0c27.93,0 41.9,-15 41.9,-45l0 -481.08c0,-46.56 14.74,-84.58 44.23,-114.06 29.49,-29.49 67.51,-44.23 114.06,-44.23l263.82 0 0 167.6 -190.88 0c-27.93,0 -41.9,15.52 -41.9,46.55l0 425.21c0,35.18 -11.12,64.66 -33.37,88.45 -22.24,23.8 -51.47,35.69 -87.68,35.69l-24.83 0 0 27.93 24.83 0c36.21,0 65.44,11.9 87.68,35.69 22.24,23.8 33.37,53.28 33.37,88.46l0 425.21c0,31.04 13.97,46.56 41.9,46.56l190.88 0 0 167.6 -263.82 0zm263.82 -71.39l456.25 -1396.68 195.54 0 -456.25 1396.68 -195.54 0zm651.78 71.39l0 -167.6 190.88 0c27.93,0 41.9,-15.52 41.9,-46.56l0 -425.21c0,-35.18 11.12,-64.66 33.37,-88.46 22.24,-23.79 51.47,-35.69 87.68,-35.69l24.83 0 0 -27.93 -24.83 0c-36.21,0 -65.44,-11.9 -87.68,-35.69 -22.24,-23.79 -33.37,-53.28 -33.37,-88.45l0 -425.21c0,-31.03 -13.97,-46.55 -41.9,-46.55l-190.88 0 0 -167.6 263.82 0c46.55,0 84.58,14.74 114.06,44.23 29.49,29.49 44.23,67.51 44.23,114.06l0 481.08c0,30 13.97,45 41.9,45l178.47 0 0 186.22 -178.47 0c-27.93,0 -41.9,15 -41.9,45l0 481.08c0,46.56 -14.74,84.58 -44.23,114.06 -29.48,29.49 -67.51,44.23 -114.06,44.23l-263.82 0zm1248.97 -223.47c-61.04,0 -118.2,-15.26 -171.48,-45.78 -53.28,-30.52 -95.96,-75.27 -128.03,-134.24 -32.07,-58.97 -48.11,-130.36 -48.11,-214.16l0 -24.83c0,-83.8 16.04,-155.19 48.11,-214.16 32.07,-58.97 74.49,-103.72 127.25,-134.24 52.76,-30.52 110.18,-45.78 172.26,-45.78 46.55,0 85.61,5.43 117.17,16.29 31.55,10.86 57.16,24.57 76.82,41.13 19.66,16.55 34.66,34.14 45.01,52.76l27.93 0 0 -405.04 195.54 0 0 1086.3 -192.43 0 0 -93.11 -27.94 0c-17.59,28.97 -44.74,55.35 -81.47,79.14 -36.73,23.8 -90.27,35.69 -160.62,35.69zm58.97 -170.7c60.01,0 110.18,-19.4 150.53,-58.2 40.35,-38.8 60.53,-95.44 60.53,-169.93l0 -15.52c0,-74.49 -19.92,-131.13 -59.75,-169.93 -39.83,-38.8 -90.27,-58.2 -151.31,-58.2 -60.01,0 -110.18,19.4 -150.53,58.2 -40.35,38.8 -60.52,95.44 -60.52,169.93l0 15.52c0,74.49 20.18,131.13 60.52,169.93 40.35,38.8 90.53,58.2 150.53,58.2zm971.47 170.7c-76.56,0 -144.07,-16.29 -202.52,-48.88 -58.45,-32.59 -103.97,-78.63 -136.57,-138.12 -32.59,-59.49 -48.88,-129.58 -48.88,-210.28l0 -18.62c0,-80.7 16.03,-150.79 48.11,-210.28 32.07,-59.49 77.08,-105.53 135.01,-138.12 57.93,-32.59 125.18,-48.88 201.74,-48.88 75.52,0 141.22,16.81 197.09,50.43 55.87,33.62 99.32,80.18 130.36,139.67 31.04,59.49 46.55,128.55 46.55,207.17l0 66.73 -560.22 0c2.07,52.76 21.73,95.7 58.97,128.8 37.24,33.11 82.76,49.66 136.56,49.66 54.83,0 95.18,-11.9 121.05,-35.69 25.87,-23.8 45.52,-50.18 58.97,-79.15l159.84 83.8c-14.49,26.9 -35.43,56.13 -62.85,87.68 -27.42,31.55 -63.89,58.45 -109.41,80.7 -45.52,22.24 -103.46,33.37 -173.81,33.37zm-187.78 -495.04l360.03 0c-4.14,-44.49 -21.98,-80.18 -53.54,-107.08 -31.55,-26.9 -72.68,-40.35 -123.37,-40.35 -52.76,0 -94.66,13.45 -125.7,40.35 -31.04,26.9 -50.18,62.59 -57.42,107.08zm872.15 473.32l-245.2 -769.72 207.95 0 178.46 626.95 27.93 0 178.47 -626.95 207.95 0 -245.2 769.72 -310.37 0zm751.1 21.73c-42.42,0 -77.85,-13.71 -106.3,-41.12 -28.45,-27.42 -42.68,-62.85 -42.68,-106.3 0,-43.45 14.22,-78.89 42.68,-106.3 28.45,-27.42 63.89,-41.12 106.3,-41.12 41.39,0 76.04,13.71 103.97,41.12 27.93,27.42 41.9,62.85 41.9,106.3 0,43.45 -13.97,78.89 -41.9,106.3 -27.93,27.42 -62.59,41.12 -103.97,41.12z"/>
   <path class="fil0" d="M5341.25 1309.77l0 -1086.3 471.77 0c68.28,0 127.77,11.9 178.47,35.69 50.69,23.8 90.01,57.42 117.94,100.87 27.93,43.45 41.9,94.66 41.9,153.64l0 18.62c0,65.18 -15.52,117.94 -46.56,158.29 -31.04,40.35 -69.32,69.83 -114.84,88.46l0 27.93c41.39,2.07 73.46,16.29 96.22,42.68 22.76,26.38 34.14,61.3 34.14,104.75l0 355.38 -204.85 0 0 -325.89c0,-24.83 -6.47,-45 -19.4,-60.52 -12.93,-15.52 -34.4,-23.28 -64.4,-23.28l-285.54 0 0 409.69 -204.85 0zm204.85 -595.92l245.19 0c48.63,0 86.65,-13.19 114.06,-39.57 27.42,-26.38 41.12,-61.3 41.12,-104.75l0 -15.52c0,-43.45 -13.45,-78.37 -40.35,-104.75 -26.9,-26.38 -65.18,-39.57 -114.84,-39.57l-245.19 0 0 304.16zm775.93 595.92l0 -1086.3 471.77 0c68.28,0 127.77,11.9 178.46,35.69 50.7,23.8 90.01,57.42 117.94,100.87 27.93,43.45 41.9,94.66 41.9,153.64l0 18.62c0,65.18 -15.52,117.94 -46.56,158.29 -31.04,40.35 -69.32,69.83 -114.84,88.46l0 27.93c41.38,2.07 73.45,16.29 96.22,42.68 22.76,26.38 34.14,61.3 34.14,104.75l0 355.38 -204.85 0 0 -325.89c0,-24.83 -6.47,-45 -19.4,-60.52 -12.93,-15.52 -34.4,-23.28 -64.4,-23.28l-285.54 0 0 409.69 -204.85 0zm204.85 -595.92l245.2 0c48.62,0 86.64,-13.19 114.06,-39.57 27.42,-26.38 41.13,-61.3 41.13,-104.75l0 -15.52c0,-43.45 -13.45,-78.37 -40.35,-104.75 -26.9,-26.38 -65.18,-39.57 -114.84,-39.57l-245.2 0 0 304.16z"/>
  </g>
 </g>
</svg>
